<svg width="29" height="26" viewBox="0 0 29 26" fill="none" xmlns="http://www.w3.org/2000/svg">
<path d="M26.4383 2.85846H26.4382C25.7131 2.13337 24.8523 1.5582 23.9049 1.16578C22.9575 0.773365 21.9422 0.57139 20.9167 0.57139C19.8913 0.57139 18.8759 0.773365 17.9285 1.16578C16.9812 1.5582 16.1204 2.13337 15.3953 2.85846L14.508 3.74589L13.6058 2.84365C12.149 1.38601 10.1749 0.563565 8.11411 0.555721C6.05331 0.547877 4.07303 1.35527 2.60519 2.80178C1.13736 4.24829 0.301085 6.21655 0.278778 8.27724C0.256471 10.3379 1.04994 12.3238 2.48612 13.8018H14.4331C14.6354 13.8009 14.8331 13.8617 15 13.976C15.1669 14.0903 15.2951 14.2526 15.3675 14.4415L15.7021 15.3069L19.3076 5.99455C19.3807 5.80615 19.5091 5.64424 19.6758 5.53008C19.8426 5.41592 20.0399 5.35483 20.242 5.35483C20.4441 5.35483 20.6415 5.41592 20.8082 5.53008C20.975 5.64424 21.1033 5.80615 21.1764 5.99455L24.1989 13.8018H26.5283C27.9513 12.3303 28.7393 10.3587 28.7225 8.3117C28.7057 6.26474 27.8853 4.30633 26.4383 2.85846V2.85846Z" fill="#6270DD"/>
<path d="M22.578 15.1657L20.2422 9.13208L16.637 18.4444C16.5639 18.6328 16.4355 18.7947 16.2687 18.9089C16.102 19.0231 15.9046 19.0842 15.7025 19.0842C15.5004 19.0842 15.303 19.0231 15.1362 18.9089C14.9694 18.7947 14.8411 18.6328 14.7679 18.4444L13.7466 15.8061H4.48242L14.5082 25.8317L24.5338 15.8061H23.5127C23.3107 15.8052 23.1136 15.7437 22.9469 15.6295C22.7803 15.5154 22.6517 15.3538 22.578 15.1657Z" fill="#6270DD"/>
</svg>
