<svg width="26" height="30" viewBox="0 0 26 30" fill="none" xmlns="http://www.w3.org/2000/svg">
<path d="M0.166992 10.3529C0.166992 11.8533 0.751265 13.264 1.81264 14.3254C2.41628 14.9296 2.74941 15.7328 2.74941 16.5876V19.1745C2.74941 22.4884 3.74687 25.6809 5.69402 28.3627C6.36997 29.2937 8.71932 29.8715 9.30101 27.4215L11.3205 18.9653C11.9015 16.9781 14.4897 17.3055 14.8377 18.9653L16.8572 27.4215C17.0367 29.0077 19.2943 30.0426 20.4642 28.3621C22.3765 25.6157 23.4088 22.4884 23.4088 19.1745V16.5876C23.4088 15.7328 23.7419 14.9296 24.3455 14.3254C25.4069 13.264 25.9912 11.8533 25.9912 10.3529V6.40959C25.9912 3.9763 24.075 0.791534 20.3731 0.791534C18.0354 0.791534 15.6944 1.34417 13.604 2.38941C13.2747 2.55404 12.8828 2.55404 12.5536 2.38941C10.4631 1.34417 8.11956 0.672097 5.78505 0.791534C1.52212 1.00975 0.166992 4.39207 0.166992 6.40959V10.3529Z" fill="#41FFDD"/>
</svg>
