<svg width="29" height="30" viewBox="0 0 29 30" fill="none" xmlns="http://www.w3.org/2000/svg">
<path d="M22.8136 12.062C22.5277 12.3736 22.1326 12.563 21.7106 12.5906C21.5344 12.5592 21.3675 12.4885 21.2223 12.3838C21.0771 12.2791 20.9574 12.143 20.8719 11.9857C20.7958 11.8745 20.6785 11.7981 20.546 11.7733C20.4135 11.7485 20.2766 11.7774 20.1654 11.8536C20.0542 11.9297 19.9778 12.047 19.953 12.1795C19.9282 12.312 19.9571 12.4489 20.0333 12.5601C20.2005 12.8476 20.4331 13.0916 20.7121 13.2727C20.9911 13.4537 21.3088 13.5665 21.6395 13.6021C21.6834 13.6063 21.7275 13.608 21.7716 13.6072C22.456 13.5605 23.0964 13.253 23.5608 12.7482C23.6065 12.6999 23.642 12.643 23.6652 12.5808C23.6885 12.5185 23.699 12.4523 23.6961 12.3859C23.6933 12.3195 23.6771 12.2544 23.6487 12.1944C23.6202 12.1344 23.5799 12.0807 23.5303 12.0366C23.4816 11.9911 23.4244 11.9557 23.362 11.9324C23.2997 11.9091 23.2333 11.8983 23.1667 11.9006C23.1001 11.903 23.0347 11.9185 22.9741 11.9461C22.9135 11.9738 22.859 12.0132 22.8136 12.062Z" fill="#FC9C56"/>
<path d="M28.1154 15.4117C28.09 15.3863 25.8586 13.1955 25.8586 9.14443C25.8586 7.86352 25.1724 6.41997 24.0236 5.09332C20.5169 0.92407 13.737 -0.71734 9.31358 2.39441C7.59027 3.45387 6.19827 4.97496 5.29539 6.78522C4.39251 8.59548 4.01488 10.6225 4.20531 12.6364C4.62202 17.0586 7.38206 20.9064 9.95911 22.3042L8.37323 27.9361C8.35324 28.0083 8.34937 28.084 8.36189 28.1579C8.37442 28.2318 8.40303 28.302 8.44571 28.3636C8.48839 28.4252 8.54409 28.4766 8.60886 28.5143C8.67363 28.552 8.74589 28.575 8.82053 28.5816C8.8667 28.5715 16.9478 29.2358 16.9887 29.2221C17.0872 29.222 17.1835 29.1931 17.2658 29.1389C17.348 29.0847 17.4125 29.0076 17.4514 28.9171L19.3321 24.5966C20.3849 24.9637 21.4863 25.1726 22.6004 25.2167C24.5992 25.2165 26.154 23.8303 25.579 21.6282C25.8379 21.3893 26.4492 21.0945 26.2601 20.6421L26.128 20.2761C26.3091 20.0701 26.6651 19.8139 26.5651 19.4882L26.0721 17.4245L28.029 16.2097C28.0943 16.1685 28.1494 16.1131 28.1903 16.0477C28.2311 15.9822 28.2567 15.9083 28.265 15.8316C28.2733 15.7549 28.2642 15.6772 28.2383 15.6045C28.2124 15.5318 28.1704 15.4659 28.1154 15.4117ZM25.2232 16.7536C25.1331 16.8101 25.063 16.8935 25.0228 16.992C24.9827 17.0905 24.9746 17.1992 24.9996 17.3026L25.5078 19.4526C25.2915 19.6807 24.9091 19.9685 25.0605 20.3269L25.1774 20.6471L24.6691 21.0589C24.5853 21.1266 24.5249 21.2191 24.4966 21.3231C24.4683 21.4271 24.4735 21.5374 24.5115 21.6383C24.6334 21.9003 24.6939 22.1866 24.6887 22.4754C24.6834 22.7643 24.6124 23.0482 24.4811 23.3055C23.1045 25.4391 18.3466 23.2521 15.9366 22.0705C15.8177 22.0112 15.6803 22.0009 15.5538 22.0418C15.4274 22.0826 15.3219 22.1714 15.2601 22.289C15.1983 22.4066 15.1851 22.5438 15.2232 22.6711C15.2613 22.7984 15.3477 22.9057 15.464 22.97C16.403 23.4631 17.3724 23.896 18.3663 24.2662C18.1654 24.729 16.8914 27.6492 16.6635 28.1801L9.5169 27.6159L10.7317 23.2954C11.0356 22.2218 11.4501 20.7434 11.7534 19.6661C12.2988 20.065 14.1149 20.3825 13.9543 19.3205C13.936 19.2562 13.905 19.1961 13.8633 19.1439C13.8216 19.0916 13.77 19.0482 13.7113 19.016C13.6527 18.9839 13.5883 18.9637 13.5218 18.9566C13.4553 18.9495 13.3881 18.9557 13.324 18.9748C11.1242 19.369 9.61391 14.8558 11.2502 13.7496C12.5701 12.6414 13.703 14.6084 14.0001 15.4372C14.0463 15.5624 14.1399 15.6644 14.2606 15.7215C14.3813 15.7785 14.5195 15.7859 14.6456 15.7421C16.3772 14.9626 17.6878 12.8725 18.3053 10.9845C18.6148 9.91305 19.1334 8.91354 19.8314 8.04371C20.5293 7.17388 21.3927 6.45097 22.3717 5.91675C22.6074 5.78982 22.8501 5.67612 23.0985 5.5762C24.1761 6.76561 24.842 8.05159 24.842 9.14443C24.7959 11.4963 25.5504 13.7941 26.9819 15.6608L25.2232 16.7536Z" fill="#FC9C56"/>
<path d="M2.85816 7.07568C3.19688 6.48039 3.82452 7.04192 4.23053 7.22308C4.34744 6.93335 4.47959 6.65379 4.62192 6.37423L4.0018 6.04892C3.88532 5.98468 3.79867 5.87734 3.76045 5.74993C3.72222 5.62253 3.73546 5.48521 3.79733 5.36746C3.8592 5.24971 3.96477 5.1609 4.09137 5.12011C4.21798 5.07931 4.35553 5.08977 4.47451 5.14924L5.13526 5.49488C5.29791 5.23057 5.4809 4.97134 5.66897 4.72227L5.242 4.49862C5.1254 4.43444 5.03863 4.32708 5.00033 4.19962C4.96203 4.07215 4.97525 3.93474 5.03717 3.81692C5.09908 3.6991 5.20474 3.61027 5.33144 3.56951C5.45814 3.52875 5.59578 3.53932 5.71477 3.59894L6.33485 3.92425C7.0353 3.16135 7.82355 2.48399 8.68317 1.90632C5.0113 -1.02857 -0.573846 2.25736 0.387898 6.90802C0.689916 8.63028 1.92156 9.89443 3.42242 10.7048C3.47682 9.85087 3.63207 9.00634 3.88491 8.18884L3.07164 7.76187C3.01241 7.731 2.95987 7.68872 2.91705 7.63746C2.87422 7.5862 2.84196 7.52697 2.82212 7.4632C2.80228 7.39942 2.79525 7.33234 2.80143 7.26584C2.80762 7.19933 2.82689 7.1347 2.85816 7.07568Z" fill="#FC9C56"/>
<path d="M13.0696 17.0535C12.8936 17.0535 12.7249 17.1234 12.6005 17.2478C12.4761 17.3722 12.4062 17.5409 12.4063 17.7168C12.4063 17.8927 12.4761 18.0614 12.6005 18.1858C12.7249 18.3102 12.8937 18.3801 13.0696 18.3801C13.1567 18.3801 13.243 18.363 13.3234 18.3296C13.4039 18.2963 13.477 18.2474 13.5386 18.1858C13.6002 18.1242 13.6491 18.0511 13.6824 17.9706C13.7157 17.8901 13.7329 17.8039 13.7329 17.7168C13.7329 17.6297 13.7157 17.5434 13.6824 17.4629C13.6491 17.3825 13.6002 17.3093 13.5386 17.2477C13.477 17.1861 13.4039 17.1373 13.3234 17.104C13.2429 17.0706 13.1567 17.0535 13.0696 17.0535Z" fill="#FC9C56"/>
</svg>
