<svg width="29" height="30" viewBox="0 0 29 30" fill="none" xmlns="http://www.w3.org/2000/svg">
<path d="M11.0442 23.1695C11.2869 23.1813 12.7663 23.8044 13.9163 22.6544C14.891 21.6796 14.891 20.0937 13.9163 19.1189C13.5169 18.7195 13.0099 18.4726 12.4528 18.4048C11.7491 18.3214 11.1782 17.7505 11.0954 17.0496C11.027 16.4897 10.7801 15.9827 10.3807 15.5833C9.40584 14.6086 7.81996 14.6086 6.84512 15.5833C5.60934 16.8192 6.31912 18.2293 6.33007 18.4554L0.277344 24.5082L4.9914 29.2223L11.0442 23.1695Z" fill="#FFAF66"/>
<path d="M24.0075 0.777832L17.9547 6.83061C17.712 6.81883 16.2326 6.19572 15.0826 7.34567C14.1079 8.3205 14.1079 9.90639 15.0826 10.8812C15.482 11.2806 15.989 11.5275 16.546 11.5953C17.2498 11.6787 17.8207 12.2496 17.9035 12.9505C17.9719 13.5104 18.2188 14.0174 18.6182 14.4168C19.5931 15.3915 21.1789 15.3915 22.1538 14.4168C23.3895 13.1809 22.6798 11.7708 22.6688 11.5447L28.7216 5.49189L24.0075 0.777832Z" fill="#FFAF66"/>
<path d="M17.4402 15.595C16.7746 14.9285 16.3636 14.0838 16.2496 13.152C15.4163 13.1373 14.5724 12.7264 13.9058 12.0615C12.8071 10.9616 12.3532 9.29731 12.9537 7.67114C11.5776 7.96003 10.265 8.62836 9.19656 9.69681C8.12818 10.7653 7.45979 12.0779 7.1709 13.4539C8.79545 12.854 10.4606 13.3062 11.5596 14.4053C12.2253 15.0718 12.6363 15.9165 12.7502 16.8483C13.5836 16.863 14.4275 17.2739 15.094 17.9388C16.1927 19.0386 16.6466 20.703 16.0462 22.3291C17.4222 22.0403 18.7349 21.3719 19.8033 20.3035C20.8717 19.235 21.5401 17.9224 21.829 16.5464C20.2044 17.1463 18.5393 16.6941 17.4402 15.595V15.595Z" fill="#FFAF66"/>
<path d="M4.2219 12.6668H5.88856V9.50014H3.49967V7.94458H1.83301V11.1668H4.2219V12.6668Z" fill="#FFAF66"/>
<path d="M12.1109 6.44447V4.7778H10.6109V2.38892H7.38867V4.05558H8.94423V6.44447H12.1109Z" fill="#FFAF66"/>
<path d="M21.5552 27.6666V26H19.9997V23.6111H16.833V25.2778H18.333V27.6666H21.5552Z" fill="#FFAF66"/>
<path d="M27.0547 22.1111V18.8889H24.7214V17.3889H23.0547V20.5556H25.388V22.1111H27.0547Z" fill="#FFAF66"/>
</svg>
