<svg width="29" height="30" viewBox="0 0 29 30" fill="none" xmlns="http://www.w3.org/2000/svg">
<path d="M19.4396 25.6703C18.7573 26.4787 18.3719 27.5454 18.4557 28.7011C18.4769 28.9938 18.7169 29.2222 19.0104 29.2222H27.8783C28.1718 29.2222 28.4118 28.9938 28.4331 28.7011C28.5168 27.5454 28.1314 26.4787 27.4492 25.6703C25.0538 27.367 21.8432 27.373 19.4396 25.6703Z" fill="#2DAA66"/>
<path d="M5.55501 25.889C6.01525 25.889 6.38835 25.5159 6.38835 25.0556C6.38835 24.5954 6.01525 24.2223 5.55501 24.2223C5.09478 24.2223 4.72168 24.5954 4.72168 25.0556C4.72168 25.5159 5.09478 25.889 5.55501 25.889Z" fill="#2DAA66"/>
<path d="M6.44401 22.7195C7.38484 23.0788 8.05512 23.9902 8.05512 25.0557C8.05512 26.4342 6.93362 27.5557 5.55512 27.5557C4.17662 27.5557 3.05512 26.4342 3.05512 25.0557C3.05512 23.9487 3.77857 23.008 4.77734 22.6802V17.8947L3.48095 18.0651C1.65395 18.2725 0.277344 19.8135 0.277344 21.6532V28.389C0.277344 28.8492 0.650455 29.2223 1.11068 29.2223H10.3329V24.0294L6.44401 19.3575V22.7195Z" fill="#2DAA66"/>
<path d="M3.39116 10.2168C3.38549 10.0104 3.38922 10.2019 3.38799 6.00305C2.27011 6.05589 1.37988 6.97883 1.37988 8.10989C1.37988 9.24194 2.27177 10.1655 3.39116 10.2168Z" fill="#2DAA66"/>
<path d="M20.9545 8.10994C20.9545 6.978 20.0628 6.0545 18.9436 6.00305C18.9424 10.2031 18.9465 9.99711 18.9404 10.2169C20.0612 10.1671 20.9545 9.24294 20.9545 8.10994Z" fill="#2DAA66"/>
<path d="M17.1286 2.89555C16.7318 1.66822 15.5787 0.777832 14.221 0.777832H8.11013C6.42535 0.777832 5.05469 2.14855 5.05469 3.83339V5.71861C9.69552 5.65794 12.7761 4.86422 14.5639 4.19378C15.998 3.65594 16.8102 3.12778 17.1286 2.89555Z" fill="#2DAA66"/>
<path d="M15.3333 17.12C12.7942 18.7377 9.54189 18.7394 7 17.1205V17.4197L11.1431 22.397L15.3333 17.4298V17.12Z" fill="#2DAA66"/>
<path d="M11.1656 16.6667C14.5351 16.6667 17.2765 13.9253 17.2765 10.5556V4.77405C15.57 5.74499 11.7959 7.30183 5.05469 7.38544V10.5556C5.05469 13.9253 7.79602 16.6667 11.1656 16.6667ZM9.30613 11.5006C9.70463 11.2704 10.2144 11.407 10.4445 11.8055C10.7645 12.3599 11.5663 12.3604 11.8866 11.8055C12.1167 11.407 12.6264 11.2704 13.0249 11.5006C13.4235 11.7308 13.56 12.2404 13.3299 12.639C12.3697 14.3018 9.96213 14.3033 9.00113 12.639C8.77108 12.2404 8.90763 11.7308 9.30613 11.5006Z" fill="#2DAA66"/>
<path d="M16.6829 18.4149L12 23.9662V29.2223H16.7419C16.7124 29.1015 16.6919 28.9771 16.6827 28.8494C16.4868 26.1442 18.1052 24.5421 18.1412 24.4779C17.1179 23.268 16.5 21.705 16.5 20.0001C16.5 19.4549 16.5635 18.9243 16.6829 18.4149Z" fill="#2DAA66"/>
<path d="M23.4438 25.2778C26.354 25.2778 28.7216 22.9102 28.7216 20C28.7216 18.3075 27.9206 16.7987 26.678 15.8323C28.5173 14.3432 27.4368 11.3889 25.1077 11.3889H24.3882C23.928 11.3889 23.5549 11.762 23.5549 12.2222C23.5549 12.6825 23.928 13.0556 24.3882 13.0556H25.1077C25.5672 13.0556 25.941 13.4294 25.941 13.8889C25.941 14.3484 25.5672 14.7222 25.1077 14.7222H23.4438C20.5336 14.7222 18.166 17.0899 18.166 20C18.166 22.9102 20.5336 25.2778 23.4438 25.2778ZM21.7771 19.1667C22.2373 19.1667 22.6105 19.5398 22.6105 20C22.6105 20.4595 22.9843 20.8334 23.4438 20.8334C23.9033 20.8334 24.2771 20.4595 24.2771 20C24.2771 19.5398 24.6502 19.1667 25.1105 19.1667C25.5707 19.1667 25.9438 19.5398 25.9438 20C25.9438 21.3785 24.8223 22.5 23.4438 22.5C22.0653 22.5 20.9438 21.3785 20.9438 20C20.9438 19.5398 21.3169 19.1667 21.7771 19.1667Z" fill="#2DAA66"/>
</svg>
