<svg width="29" height="30" viewBox="0 0 29 30" fill="none" xmlns="http://www.w3.org/2000/svg">
<path d="M0.277344 22.2727C0.793498 26.1619 4.106 29.1588 8.11689 29.1588C12.1278 29.1588 15.4397 26.1586 15.9559 22.2727H0.277344Z" fill="#FFD15B"/>
<path d="M15.9559 20.1521C15.4397 16.2628 12.1272 13.2665 8.11689 13.2665C4.10655 13.2665 0.794054 16.2651 0.277344 20.1521H15.9559Z" fill="#FFD15B"/>
<path d="M28.0737 19.1419L25.518 13.0653C23.0602 13.2073 20.6457 13.7739 18.3813 14.7399C17.7279 15.017 17.093 15.3238 16.4767 15.6605C17.5955 17.3597 18.1748 19.3573 18.1388 21.3914C18.1027 23.4256 17.4528 25.4014 16.2744 27.0598C17.2874 28.0941 18.5887 28.799 20.0083 29.0827C21.428 29.3663 22.9002 29.2155 24.2329 28.6499C27.9071 27.0904 29.6294 22.8333 28.0737 19.1419V19.1419Z" fill="#FFD15B"/>
<path d="M22.2146 5.21078C20.6622 1.51992 16.4246 -0.208005 12.7504 1.35213C9.07625 2.9117 7.35666 7.16872 8.90957 10.8601L9.04736 11.1885C11.329 11.4011 13.4677 12.3934 15.1034 13.9982C15.8978 13.5476 16.7173 13.143 17.5581 12.7864C19.8136 11.8242 22.2063 11.2221 24.6487 11.0024L22.2146 5.21078ZM19.8916 7.41541C19.7638 7.46915 19.6267 7.49719 19.488 7.49794C19.3494 7.49868 19.212 7.47211 19.0836 7.41974C18.9553 7.36738 18.8385 7.29024 18.7399 7.19273C18.6414 7.09523 18.563 6.97927 18.5093 6.85147C18.3043 6.3584 17.9881 5.91943 17.5853 5.56887C17.1825 5.21832 16.704 4.96569 16.1874 4.83075C15.9186 4.7576 15.6896 4.58115 15.5503 4.33987C15.411 4.09859 15.3728 3.81203 15.4439 3.54267C15.515 3.27331 15.6897 3.04298 15.93 2.90189C16.1702 2.7608 16.4564 2.72039 16.7263 2.78947C17.5559 3.00592 18.3242 3.41128 18.9711 3.97387C19.618 4.53646 20.1261 5.24103 20.4555 6.03252C20.5094 6.16034 20.5375 6.29752 20.5383 6.43621C20.539 6.5749 20.5125 6.71239 20.4601 6.84082C20.4078 6.96925 20.3306 7.08609 20.233 7.18468C20.1355 7.28328 20.0195 7.36168 19.8916 7.41541V7.41541Z" fill="#FFD15B"/>
</svg>
